<svg viewBox="0 0 512 512" xmlns="http://www.w3.org/2000/svg"><path d="m448.207031 86.984375c-40.710937-46.285156-96.59375-76.339844-157.355469-84.625-4.09375-.558594-7.882812 2.316406-8.441406 6.417969-.558594 4.105468 2.3125 7.886718 6.417969 8.445312 57.1875 7.796875 109.789063 36.089844 148.117187 79.667969 38.671876 43.972656 59.972657 100.476563 59.972657 159.109375 0 64.375-25.0625 124.894531-70.574219 170.414062-45.511719 45.519532-106.023438 70.585938-170.382812 70.585938-64.363282 0-124.875-25.066406-170.386719-70.585938-45.511719-45.519531-70.574219-106.039062-70.574219-170.414062s25.0625-124.894531 70.574219-170.414062c45.511719-45.519532 106.023437-70.585938 170.386719-70.585938 4.140624 0 7.5-3.359375 7.5-7.5s-3.359376-7.5-7.5-7.5c-68.371094 0-132.648438 26.628906-180.992188 74.980469-48.34375 48.351562-74.96875 112.640625-74.96875 181.019531s26.625 132.667969 74.96875 181.019531c48.34375 48.351563 112.621094 74.980469 180.992188 74.980469 68.367187 0 132.644531-26.628906 180.988281-74.980469 48.34375-48.351562 74.96875-112.640625 74.96875-181.019531 0-62.28125-22.625-122.304688-63.710938-169.015625zm0 0"/><path d="m330.15625 354.328125c21.175781-6.496094 40.199219-19.878906 53.566406-37.683594 13.824219-18.417969 21.132813-40.355469 21.132813-63.445312 0-58.316407-47.4375-105.761719-105.746094-105.761719h-86.304687c-58.308594 0-105.746094 47.445312-105.746094 105.761719 0 42.472656 25.25 80.679687 64.324218 97.332031 2.648438 1.128906 4.359376 3.691406 4.359376 6.527344v25.269531c0 6.929687 4.21875 12.910156 10.742187 15.242187 1.824219.652344 3.691406.96875 5.53125.96875 4.726563 0 9.269531-2.097656 12.429687-5.957031l25.410157-31.027343c1.351562-1.648438 3.34375-2.59375 5.472656-2.59375h58.160156c4.144531 0 7.5-3.355469 7.5-7.5 0-4.140626-3.355469-7.5-7.5-7.5h-58.160156c-6.644531 0-12.867187 2.949218-17.078125 8.089843l-25.410156 31.027344c-.15625.195313-.527344.644531-1.3125.367187-.785156-.28125-.785156-.867187-.785156-1.117187v-25.269531c0-8.855469-5.292969-16.835938-13.480469-20.324219-33.535157-14.292969-55.203125-47.082031-55.203125-83.535156 0-50.046875 40.707031-90.761719 90.746094-90.761719h86.304687c50.035156 0 90.746094 40.714844 90.746094 90.761719 0 19.816406-6.269531 38.640625-18.128907 54.441406-11.480468 15.285156-27.804687 26.773437-45.972656 32.347656-3.957031 1.214844-6.183594 5.410157-4.96875 9.367188 1.214844 3.960937 5.410156 6.1875 9.371094 4.972656zm0 0"/><path d="m175.992188 251.871094c0 12.453125 10.125 22.582031 22.574218 22.582031 12.449219 0 22.578125-10.128906 22.578125-22.582031 0-12.449219-10.128906-22.578125-22.578125-22.578125-12.449218 0-22.574218 10.128906-22.574218 22.578125zm30.152343 0c0 4.179687-3.398437 7.582031-7.578125 7.582031-4.175781 0-7.574218-3.402344-7.574218-7.582031 0-4.175782 3.398437-7.578125 7.574218-7.578125 4.179688 0 7.578125 3.402343 7.578125 7.578125zm0 0"/><path d="m233.382812 251.871094c0 12.453125 10.128907 22.582031 22.578126 22.582031 12.445312 0 22.574218-10.128906 22.574218-22.582031 0-12.449219-10.128906-22.578125-22.574218-22.578125-12.449219 0-22.578126 10.128906-22.578126 22.578125zm30.152344 0c0 4.179687-3.398437 7.582031-7.574218 7.582031-4.179688 0-7.578126-3.402344-7.578126-7.582031 0-4.175782 3.398438-7.578125 7.578126-7.578125 4.175781 0 7.574218 3.402343 7.574218 7.578125zm0 0"/><path d="m335.925781 251.871094c0-12.449219-10.125-22.578125-22.574219-22.578125-12.449218 0-22.578124 10.128906-22.578124 22.578125 0 12.453125 10.128906 22.582031 22.578124 22.582031 12.449219 0 22.574219-10.128906 22.574219-22.582031zm-22.574219 7.582031c-4.179687 0-7.578124-3.402344-7.578124-7.582031 0-4.175782 3.398437-7.578125 7.578124-7.578125 4.175782 0 7.574219 3.402343 7.574219 7.578125 0 4.179687-3.398437 7.582031-7.574219 7.582031zm0 0"/></svg>